<svg xmlns="http://www.w3.org/2000/svg" viewBox="0 0 1810.46 349.17"><g id="Layer_2" data-name="Layer 2"><g id="Ebene_1" data-name="Ebene 1"><path d="M386.71,94.06l1.9,20.35h.28q7.49-10.05,21.32-16.67a64.94,64.94,0,0,1,28.4-6.62h3.54v9.68h-3.54a60.49,60.49,0,0,0-28.81,7.36q-13.83,7.35-20.91,19.25v81.16H378V94.06Z" transform="translate(0 -30.04)" style="fill:#004f8a;stroke:#004f8a;stroke-miterlimit:10;stroke-width:2px"/><path d="M452.61,150.09q0-17.9,6.95-31.26a50,50,0,0,1,19.07-20.54,52.49,52.49,0,0,1,27.25-7.17q22.33,0,35.69,13.18t13.35,41.5v4.29H464.05q0,27.1,13.22,39.79t37.19,12.69q20.43,0,36-6.5v9.19q-12.66,6.38-36,6.38-29.7,0-45.78-16.06T452.61,150.09Zm53.27-50.27q-16.9,0-28.48,11.59t-13.08,29.85h79.43q-.42-20.34-10-30.89T505.88,99.82Z" transform="translate(0 -30.04)" style="fill:#004f8a;stroke:#004f8a;stroke-miterlimit:10;stroke-width:2px"/><path d="M580.36,152.05q0-27.95,15-44.44t40.19-16.49q13.08,0,22.69,3.92a42.61,42.61,0,0,1,16.68,12.38h.55l-.55-13.85V31h10.9V186q0,14.24.82,22.56h-8.17l-3-13.36h-.55q-5.45,6.61-17,11.53a57.69,57.69,0,0,1-22.68,4.9,59.54,59.54,0,0,1-27.38-6.31q-12.4-6.32-20-19.68T580.36,152.05ZM674.9,182.7v-65q-16.75-17.65-39.09-17.65-20.44,0-32.22,14.1T591.8,152.54q0,23.43,11.65,36.72t32.08,13.31A49.55,49.55,0,0,0,658.69,197Q669.46,191.41,674.9,182.7Z" transform="translate(0 -30.04)" style="fill:#004f8a;stroke:#004f8a;stroke-miterlimit:10;stroke-width:2px"/><path d="M717.65,150.09q0-17.9,6.94-31.26a50.06,50.06,0,0,1,19.08-20.54,52.48,52.48,0,0,1,27.24-7.17q22.35,0,35.69,13.18T820,145.8v4.29H729.09q0,27.1,13.21,39.79t37.19,12.69q20.44,0,36-6.5v9.19q-12.68,6.38-36,6.38-29.7,0-45.77-16.06T717.65,150.09Zm53.26-50.27q-16.89,0-28.47,11.59t-13.08,29.85h79.42q-.4-20.34-9.94-30.89T770.91,99.82Z" transform="translate(0 -30.04)" style="fill:#004f8a;stroke:#004f8a;stroke-miterlimit:10;stroke-width:2px"/><path d="M863.51,94.06l1.91,20.35h.27q7.5-10.05,21.32-16.67a65,65,0,0,1,28.41-6.62H919v9.68h-3.54a60.46,60.46,0,0,0-28.81,7.36q-13.83,7.35-20.92,19.25v81.16H854.8V94.06Z" transform="translate(0 -30.04)" style="fill:#004f8a;stroke:#004f8a;stroke-miterlimit:10;stroke-width:2px"/><path d="M981.79,208.7V198.52q14.72,7.24,34.6,7.24,16.22,0,25.68-6.81t9.47-19.06q0-9.33-6.27-14.35t-21-8.21a169.48,169.48,0,0,1-22.07-6.13,34.44,34.44,0,0,1-14-9.32q-5.45-6.13-5.44-16.19,0-16.05,12-23.84t30.65-7.79a77.73,77.73,0,0,1,31.75,6.5v9.56a94.09,94.09,0,0,0-15.33-5.45,69.72,69.72,0,0,0-17.23-1.9q-15.4,0-23.37,5.76t-8,16.3q0,7.37,3.75,11.47a23.94,23.94,0,0,0,10.29,6.31q6.54,2.2,19.75,5.15,18.39,4.17,26.77,11.22t8.38,20.17q0,16.18-12.26,25.81t-33.52,9.62Q993.52,214.58,981.79,208.7Z" transform="translate(0 -30.04)" style="fill:#004f8a;stroke:#004f8a;stroke-miterlimit:10;stroke-width:2px"/><path d="M1074.53,97h11.72q38.55,93.67,43,104h1.08l44.55-104h11.72l-77,171.53H1098l25.48-56Z" transform="translate(0 -30.04)" style="fill:#004f8a;stroke:#004f8a;stroke-miterlimit:10;stroke-width:2px"/><path d="M1200.1,208.7V198.52q14.72,7.24,34.6,7.24,16.21,0,25.68-6.81t9.47-19.06q0-9.33-6.26-14.35t-21-8.21a169.48,169.48,0,0,1-22.07-6.13,34.44,34.44,0,0,1-14-9.32q-5.45-6.13-5.45-16.19,0-16.05,12-23.84t30.66-7.79a77.72,77.72,0,0,1,31.74,6.5v9.56a94.09,94.09,0,0,0-15.33-5.45,69.72,69.72,0,0,0-17.23-1.9q-15.41,0-23.37,5.76t-8,16.3q0,7.37,3.74,11.47a23.94,23.94,0,0,0,10.29,6.31q6.54,2.2,19.75,5.15,18.39,4.17,26.77,11.22t8.38,20.17q0,16.18-12.26,25.81t-33.52,9.62Q1211.83,214.58,1200.1,208.7Z" transform="translate(0 -30.04)" style="fill:#004f8a;stroke:#004f8a;stroke-miterlimit:10;stroke-width:2px"/><path d="M1314.36,184.18V106.32h-25.2V97h25.2V66.35h10.9V97h39v9.32h-39v75q0,13.24,5.72,18.69t18,5.46q10.76,0,17.3-2.08V212a65.44,65.44,0,0,1-19.35,2.57q-15.26,0-23.9-7.6T1314.36,184.18Z" transform="translate(0 -30.04)" style="fill:#004f8a;stroke:#004f8a;stroke-miterlimit:10;stroke-width:2px"/><path d="M1382.72,153q0-17.9,7-31.26a50,50,0,0,1,19.07-20.54A52.48,52.48,0,0,1,1436,94.06q22.35,0,35.7,13.18t13.35,41.5V153h-90.87q0,27.1,13.22,39.79t37.19,12.69q20.43,0,36-6.5v9.2q-12.66,6.38-36,6.37-29.7,0-45.78-16.06T1382.72,153ZM1436,102.77q-16.89,0-28.47,11.58t-13.08,29.86h79.43q-.42-20.36-9.95-30.9T1436,102.77Z" transform="translate(0 -30.04)" style="fill:#004f8a;stroke:#004f8a;stroke-miterlimit:10;stroke-width:2px"/><path d="M1528.59,97l2.18,16.06h.27a66.86,66.86,0,0,1,18.39-14.28q9.4-4.71,22.89-4.72,16.22,0,26.29,6.74t13.62,16.56h.55q9.26-11.89,19.55-17.6t24-5.7q21,0,32,10.85t11,30.47v76.14h-10.89V137.71q0-34.7-32.84-34.7-13.21,0-22.68,6.44t-17.78,18.45v83.62H1604.2V134.15q0-14.46-8.65-22.8T1571,103a43.54,43.54,0,0,0-21.66,5.27,75.21,75.21,0,0,0-18.53,15.33v87.91h-10.9V97Z" transform="translate(0 -30.04)" style="fill:#004f8a;stroke:#004f8a;stroke-miterlimit:10;stroke-width:2px"/><path d="M1729.09,208.7V198.52q14.7,7.24,34.6,7.24,16.2,0,25.68-6.81t9.47-19.06q0-9.33-6.27-14.35t-21-8.21a169.93,169.93,0,0,1-22.07-6.13,34.4,34.4,0,0,1-14-9.32q-5.46-6.13-5.45-16.19,0-16.05,12-23.84t30.65-7.79a77.72,77.72,0,0,1,31.74,6.5v9.56a94.09,94.09,0,0,0-15.33-5.45,69.72,69.72,0,0,0-17.23-1.9q-15.39,0-23.36,5.76t-8,16.3q0,7.37,3.74,11.47a23.94,23.94,0,0,0,10.29,6.31q6.54,2.2,19.75,5.15,18.39,4.17,26.77,11.22t8.38,20.17q0,16.18-12.26,25.81t-33.51,9.62Q1740.8,214.58,1729.09,208.7Z" transform="translate(0 -30.04)" style="fill:#004f8a;stroke:#004f8a;stroke-miterlimit:10;stroke-width:2px"/><rect x="147.35" y="64.17" width="92.78" height="21.62" style="fill:green"/><rect x="193.74" y="140.6" width="114.4" height="21.62" transform="translate(99.53 372.32) rotate(-90)" style="fill:green"/><rect x="16.96" y="304.32" width="97.44" height="21.62" style="fill:#004f8a"/><rect x="-46.39" y="287.97" width="114.4" height="21.62" transform="translate(-287.97 279.55) rotate(-90)" style="fill:#004f8a"/><path d="M383,342.8V309.31h-9.76v-4H383V292.12h4.22v13.19H402.3v4H387.22v32.28c0,3.79.73,6.48,2.21,8s3.8,2.35,7,2.35a20.48,20.48,0,0,0,6.7-.9v3.69a23,23,0,0,1-7.49,1.11q-5.91,0-9.26-3.27T383,342.8Z" transform="translate(0 -30.04)" style="stroke:#000;stroke-miterlimit:10;stroke-width:0.25px"/><path d="M449.28,278.2v29.48l-.21,5.64h.21Q456,304,465.79,304q8.18,0,12,4.77t3.79,13.27v32.48h-4.16V321.71q0-6.49-2.88-10.16t-8.93-3.66q-9.45,0-16.3,10.28v36.39h-4.22V278.2Z" transform="translate(0 -30.04)" style="stroke:#000;stroke-miterlimit:10;stroke-width:0.25px"/><path d="M525.32,329.41A31.47,31.47,0,0,1,528,316a20.82,20.82,0,0,1,7.38-8.84A18.85,18.85,0,0,1,545.94,304q8.65,0,13.82,5.67t5.17,17.85v1.85H529.75q0,11.65,5.12,17.11T549.26,352a32.77,32.77,0,0,0,13.93-2.8v4q-4.91,2.73-13.93,2.74-11.49,0-17.72-6.91T525.32,329.41Zm20.62-21.63a14.26,14.26,0,0,0-11,5,20.82,20.82,0,0,0-5.06,12.84H560.6q-.15-8.76-3.85-13.29T545.94,307.78Z" transform="translate(0 -30.04)" style="stroke:#000;stroke-miterlimit:10;stroke-width:0.25px"/><path d="M656.94,330.35q0-9.37,3.4-15.26a20.74,20.74,0,0,1,8.57-8.47A23.73,23.73,0,0,1,679.62,304a34.2,34.2,0,0,1,7.22.76,20.56,20.56,0,0,1,5.7,2v4.33a27.26,27.26,0,0,0-6.3-2.37,27.56,27.56,0,0,0-6.73-.9,18.09,18.09,0,0,0-8.72,2.24,16.83,16.83,0,0,0-6.78,7.3q-2.64,5.07-2.64,13,0,9.85,5.17,15.69T680.46,352a33.88,33.88,0,0,0,12.87-3v3.95a29.05,29.05,0,0,1-13.18,3,24.5,24.5,0,0,1-11.74-2.8,20.37,20.37,0,0,1-8.36-8.51C658,340.75,656.94,336,656.94,330.35Z" transform="translate(0 -30.04)" style="stroke:#000;stroke-miterlimit:10;stroke-width:0.25px"/><path d="M736.83,278.2h4.22v76.36h-4.22Z" transform="translate(0 -30.04)" style="stroke:#000;stroke-miterlimit:10;stroke-width:0.25px"/><path d="M785.35,329.41A31.32,31.32,0,0,1,788,316a20.82,20.82,0,0,1,7.38-8.84A18.82,18.82,0,0,1,806,304q8.64,0,13.81,5.67T825,327.56v1.85H789.78q0,11.65,5.11,17.11t14.4,5.46a32.76,32.76,0,0,0,13.92-2.8v4q-4.9,2.73-13.92,2.74-11.5,0-17.72-6.91T785.35,329.41ZM806,307.78a14.28,14.28,0,0,0-11,5,20.94,20.94,0,0,0-5.06,12.84h30.75q-.17-8.76-3.85-13.29T806,307.78Z" transform="translate(0 -30.04)" style="stroke:#000;stroke-miterlimit:10;stroke-width:0.25px"/><path d="M866.5,340.43a13.55,13.55,0,0,1,4.78-10.81q4.77-4.12,12.31-4.12a44.58,44.58,0,0,1,15.13,2.9v-6.32q0-7-3.63-10.6t-11.61-3.59a41.27,41.27,0,0,0-12.65,2.48v-4a17.56,17.56,0,0,1,5.3-1.66,39.42,39.42,0,0,1,7.35-.71q9.87,0,14.66,4.48t4.8,13.56v16.71q0,5.22.42,15.77h-3.79l-.74-5.75h-.21a20.64,20.64,0,0,1-7.07,5,21.57,21.57,0,0,1-9,2.11q-7.21,0-11.62-3.85T866.5,340.43Zm32.22,3.95V332.09a45.93,45.93,0,0,0-7.09-2.08,47.9,47.9,0,0,0-8.57-.6c-3.83,0-6.83.95-9,2.87s-3.24,4.63-3.24,8.15q0,5.9,3.21,8.78a12.31,12.31,0,0,0,8.49,2.87,18.27,18.27,0,0,0,9.55-2.27A28.36,28.36,0,0,0,898.72,344.38Z" transform="translate(0 -30.04)" style="stroke:#000;stroke-miterlimit:10;stroke-width:0.25px"/><path d="M954.25,305.31l.74,8h.1a22.89,22.89,0,0,1,7.31-6.83,18.13,18.13,0,0,1,9.2-2.45q7.8,0,11.79,4.59t4,13.45v32.48H983.2v-32q0-7.38-2.85-11.05t-9.28-3.66a15.64,15.64,0,0,0-8.7,2.77,25,25,0,0,0-7.28,7.51v36.39h-4.21V305.31Z" transform="translate(0 -30.04)" style="stroke:#000;stroke-miterlimit:10;stroke-width:0.25px"/><path d="M1081.07,340.43a13.57,13.57,0,0,1,4.77-10.81q4.79-4.12,12.32-4.12a44.62,44.62,0,0,1,15.13,2.9v-6.32q0-7-3.64-10.6t-11.6-3.59a41.27,41.27,0,0,0-12.65,2.48v-4a17.56,17.56,0,0,1,5.3-1.66,39.34,39.34,0,0,1,7.35-.71q9.87,0,14.66,4.48t4.8,13.56v16.71q0,5.22.42,15.77h-3.79l-.74-5.75h-.21a20.74,20.74,0,0,1-7.07,5,21.57,21.57,0,0,1-9,2.11q-7.21,0-11.62-3.85T1081.07,340.43Zm32.22,3.95V332.09a45.93,45.93,0,0,0-7.09-2.08,47.9,47.9,0,0,0-8.57-.6c-3.83,0-6.83.95-9,2.87s-3.24,4.63-3.24,8.15q0,5.9,3.21,8.78a12.31,12.31,0,0,0,8.49,2.87,18.3,18.3,0,0,0,9.55-2.27A28.57,28.57,0,0,0,1113.29,344.38Z" transform="translate(0 -30.04)" style="stroke:#000;stroke-miterlimit:10;stroke-width:0.25px"/><path d="M1165.13,288.69H1170v5.07h-4.85Zm.32,16.62h4.21v49.25h-4.21Z" transform="translate(0 -30.04)" style="stroke:#000;stroke-miterlimit:10;stroke-width:0.25px"/><path d="M1221,305.31l.74,8.75h.11a22.24,22.24,0,0,1,8.25-7.17,23.12,23.12,0,0,1,11-2.85h1.38v4.17h-1.38a21.61,21.61,0,0,0-11.15,3.16,21.08,21.08,0,0,0-8.09,8.28v34.91h-4.22V305.31Z" transform="translate(0 -30.04)" style="stroke:#000;stroke-miterlimit:10;stroke-width:0.25px"/><path d="M1328.65,329.41a31.47,31.47,0,0,1,2.69-13.45,20.82,20.82,0,0,1,7.38-8.84,18.85,18.85,0,0,1,10.55-3.08q8.65,0,13.82,5.67t5.17,17.85v1.85h-35.18q0,11.65,5.12,17.11t14.39,5.46a32.77,32.77,0,0,0,13.93-2.8v4q-4.9,2.73-13.93,2.74-11.49,0-17.71-6.91T1328.65,329.41Zm20.62-21.63a14.26,14.26,0,0,0-11,5,20.82,20.82,0,0,0-5.06,12.84h30.74q-.15-8.76-3.85-13.29T1349.27,307.78Z" transform="translate(0 -30.04)" style="stroke:#000;stroke-miterlimit:10;stroke-width:0.25px"/><path d="M1423.1,329.62l-17.72-24.31h4.8l15.29,21.3,15.24-21.3h4.54l-17.14,24.2L1446,354.56h-4.8l-15.77-21.94-15.66,21.94h-4.64Z" transform="translate(0 -30.04)" style="stroke:#000;stroke-miterlimit:10;stroke-width:0.25px"/><path d="M1488.43,305.31l1.32,5.74h.11a19,19,0,0,1,6.83-5,20,20,0,0,1,8.41-2q10.34,0,15.79,6.67t5.46,18.8q0,10.44-3.59,16.32t-8.36,8a23.14,23.14,0,0,1-9.3,2.09q-9.7,0-15.35-6.07h-.1l.1,9.6v19.67h-4.22V305.31Zm33.49,24.31q0-10.33-4.43-16t-12.39-5.69a18.77,18.77,0,0,0-15.35,8.23v29.37a24.42,24.42,0,0,0,7.15,5A20.3,20.3,0,0,0,1505,352a17.91,17.91,0,0,0,11.55-4.41Q1521.93,343.17,1521.92,329.62Z" transform="translate(0 -30.04)" style="stroke:#000;stroke-miterlimit:10;stroke-width:0.25px"/><path d="M1567,329.41a31.47,31.47,0,0,1,2.68-13.45,20.91,20.91,0,0,1,7.39-8.84,18.81,18.81,0,0,1,10.54-3.08q8.66,0,13.82,5.67t5.17,17.85v1.85h-35.18q0,11.65,5.12,17.11T1591,352a32.76,32.76,0,0,0,13.92-2.8v4q-4.9,2.73-13.92,2.74-11.51,0-17.72-6.91T1567,329.41Zm20.61-21.63a14.26,14.26,0,0,0-11,5,20.88,20.88,0,0,0-5.06,12.84h30.74q-.15-8.76-3.85-13.29T1587.62,307.78Z" transform="translate(0 -30.04)" style="stroke:#000;stroke-miterlimit:10;stroke-width:0.25px"/><path d="M1655.44,305.31l.74,8.75h.1a22.35,22.35,0,0,1,8.26-7.17,23.09,23.09,0,0,1,11-2.85h1.37v4.17h-1.37a21.56,21.56,0,0,0-11.15,3.16,21.17,21.17,0,0,0-8.1,8.28v34.91h-4.22V305.31Z" transform="translate(0 -30.04)" style="stroke:#000;stroke-miterlimit:10;stroke-width:0.25px"/><path d="M1718,342.8V309.31h-9.76v-4H1718V292.12h4.22v13.19h15.08v4H1722.2v32.28c0,3.79.74,6.48,2.21,8s3.8,2.35,7,2.35a20.48,20.48,0,0,0,6.7-.9v3.69a22.94,22.94,0,0,1-7.49,1.11q-5.89,0-9.25-3.27T1718,342.8Z" transform="translate(0 -30.04)" style="stroke:#000;stroke-miterlimit:10;stroke-width:0.25px"/><path d="M1776.14,353.35V349a27.58,27.58,0,0,0,13.4,3.11q6.27,0,9.94-2.93a9.9,9.9,0,0,0,3.66-8.2,7.87,7.87,0,0,0-2.42-6.17c-1.62-1.44-4.33-2.61-8.12-3.53a59.06,59.06,0,0,1-8.55-2.64,13.3,13.3,0,0,1-5.43-4,10.86,10.86,0,0,1-2.11-7q0-6.91,4.64-10.26T1793,304a27.59,27.59,0,0,1,12.29,2.79V311a34.66,34.66,0,0,0-5.94-2.35,24.64,24.64,0,0,0-6.67-.82q-6,0-9,2.48a8.49,8.49,0,0,0-3.09,7,7.6,7.6,0,0,0,1.45,4.93,9.17,9.17,0,0,0,4,2.71,73.15,73.15,0,0,0,7.64,2.22q7.13,1.78,10.36,4.82t3.25,8.68a14,14,0,0,1-4.75,11.1q-4.74,4.14-13,4.14Q1780.68,355.88,1776.14,353.35Z" transform="translate(0 -30.04)" style="stroke:#000;stroke-miterlimit:10;stroke-width:0.25px"/><rect x="380.61" y="63.02" width="9.17" height="40" style="fill:#004f8a"/><rect x="673.96" y="0.01" width="9.17" height="179.52" style="fill:#004f8a"/><rect x="857.52" y="63.02" width="9.17" height="40.02" style="fill:#004f8a"/><rect x="1522.6" y="65.97" width="9.17" height="40.02" style="fill:#004f8a"/></g></g></svg>